:SAMPLES-PER-SECOND 30
:FULLY-SPECIFIED
:DEGREES
485
root  2.17033 39.7153 -1.29623 0.699767 5.84861 5.53492
RightUpLeg  -5.3858 -14.5375 -14.2854
RightLeg  9.88576 -10.4781 -3.79268
RightFoot  2.36131 -1.12922 8.10596
RightToes  1.74624e-010 -3.18055e-015 -2.98177e-016
Spine  0.469566 6.04434 18.451
Spine1  -11.2149 8.22164 -34.4731
HEad  32.7087 -0.558068 24.0265
LeftShoulder1  -3.88251e-019 9.70628e-020 -3.87848e-018
LeftArm  -46.1398 25.476 5.48221
LeftForeArm  175.965 -70.2199 151.478
LeftHand  -5.36316 -8.37839 44.5043
RightShoulder  -0.960561 -7.27056 -12.7036
RightArm  -34.3111 42.5151 18.2058
RightForeArm  -39.7031 58.9836 -43.9535
RightHand  -2.61314 11.3954 -17.9577
LeftUpLeg  -3.27322 -8.26156 -13.4387
LeftLeg  6.38003 12.6789 3.42627
LeftFoot  -4.94277 -0.3577 4.83261
LeftToes  7.37594e-011 2.64622e-011 -6.25182e-011
486
root  2.2267 39.6973 -1.33147 0.883385 5.47101 5.65573
RightUpLeg  -5.88578 -14.8414 -14.3664
RightLeg  10.0155 -9.83115 -3.84142
RightFoot  2.39585 -1.13279 8.10942
RightToes  1.74624e-010 -3.18055e-015 -2.98177e-016
Spine  0.951247 6.05039 18.5774
Spine1  -12.0035 8.08712 -34.9783
HEad  35.0426 -0.356795 23.7801
LeftShoulder1  -3.88251e-019 9.70628e-020 -3.87848e-018
LeftArm  -46.1058 24.5013 6.86802
LeftForeArm  173.061 -66.3962 156.724
LeftHand  -5.52937 -8.6285 44.9834
RightShoulder  -0.965962 -7.75545 -13.4802
RightArm  -35.6834 42.8637 17.7231
RightForeArm  -46.7442 62.2019 -51.6995
RightHand  -2.546 12.3553 -16.5868
LeftUpLeg  -3.55096 -8.40069 -13.6442
LeftLeg  6.48541 13.1869 3.51607
LeftFoot  -5.11144 -0.332303 4.5837
LeftToes  7.37594e-011 2.64622e-011 -6.25182e-011
487
root  2.27915 39.6822 -1.3599 1.11345 5.20651 5.75285
RightUpLeg  -6.3601 -15.1515 -14.4256
RightLeg  10.1225 -9.32652 -3.86474
RightFoot  2.44568 -1.13841 8.12808
RightToes  1.74624e-010 -3.18055e-015 -2.98177e-016
Spine  0.961684 6.05504 18.6881
Spine1  -12.2672 8.0416 -35.4329
HEad  37.301 -0.0776076 23.5013
LeftShoulder1  -3.88251e-019 9.70628e-020 -3.87848e-018
LeftArm  -45.8835 23.7527 8.06333
LeftForeArm  170.907 -62.3656 160.671
LeftHand  -5.58834 -8.63832 45.3855
RightShoulder  -0.963767 -8.27828 -14.0519
RightArm  -37.6474 42.9368 17.1689
RightForeArm  -56.8338 65.0991 -61.9601
RightHand  -2.41051 12.9273 -15.2511
LeftUpLeg  -3.85128 -8.48457 -13.7854
LeftLeg  6.55278 13.5179 3.52796
LeftFoot  -5.28299 -0.304592 4.3068
LeftToes  7.37594e-011 2.64622e-011 -6.25182e-011
488
root  2.33015 39.6664 -1.39567 1.34433 4.95649 5.83638
RightUpLeg  -6.87258 -15.4577 -14.4494
RightLeg  10.271 -8.85786 -3.92752
RightFoot  2.49348 -1.14567 8.15359
RightToes  1.74624e-010 -3.18055e-015 -2.98177e-016
Spine  0.846291 6.06269 18.6921
Spine1  -12.3704 8.02345 -35.7412
HEad  39.3034 0.236636 23.166
LeftShoulder1  -3.88251e-019 9.70628e-020 -3.87848e-018
LeftArm  -45.5261 23.4037 9.17761
LeftForeArm  169.455 -58.4509 163.574
LeftHand  -5.39235 -8.50369 44.338
RightShoulder  -0.958078 -8.70693 -14.4091
RightArm  -39.9516 42.894 16.3836
RightForeArm  -70.5652 67.1959 -74.3443
RightHand  -2.37877 13.3159 -14.7525
LeftUpLeg  -4.17986 -8.49041 -13.8674
LeftLeg  6.64034 13.7406 3.45836
LeftFoot  -5.42525 -0.280883 4.06883
LeftToes  7.37594e-011 2.64622e-011 -6.25182e-011
489
root  2.38005 39.649 -1.44687 1.51755 4.60721 5.9099
RightUpLeg  -7.41515 -15.6458 -14.4312
RightLeg  10.4321 -8.39201 -4.03966
RightFoot  2.56459 -1.155 8.18156
RightToes  1.74624e-010 -3.18055e-015 -2.98177e-016
Spine  1.11912 6.01043 18.6193
Spine1  -12.8517 7.87679 -35.9521
HEad  41.0126 0.398275 22.8519
LeftShoulder1  -3.88251e-019 9.70628e-020 -3.87848e-018
LeftArm  -44.9857 23.7293 10.164
LeftForeArm  168.89 -54.8776 165.685
LeftHand  -5.1264 -8.67667 41.8832
RightShoulder  -0.952422 -8.99767 -14.7065
RightArm  -42.5718 42.8103 15.3773
RightForeArm  -86.3492 68.2136 -87.5448
RightHand  -2.51642 13.6289 -15.3344
LeftUpLeg  -4.49892 -8.4716 -13.935
LeftLeg  6.76515 14.0324 3.39569
LeftFoot  -5.52597 -0.265454 3.91521
LeftToes  7.37594e-011 2.64622e-011 -6.25182e-011
490
root  2.42977 39.6358 -1.49531 1.56045 4.21421 5.94332
RightUpLeg  -7.77058 -15.5774 -14.4069
RightLeg  10.473 -8.10508 -4.11967
RightFoot  2.69688 -1.16923 8.21069
RightToes  1.74624e-010 -3.18055e-015 -2.98177e-016
Spine  1.7533 5.84485 18.5385
Spine1  -13.6251 7.57089 -36.0964
HEad  42.5122 0.368054 22.6517
LeftShoulder1  -3.88251e-019 9.70628e-020 -3.87848e-018
LeftArm  -44.1183 24.7275 11.0235
LeftForeArm  169.926 -51.7298 167.185
LeftHand  -5.11538 -9.27918 40.1777
RightShoulder  -0.944639 -9.2886 -15.0882
RightArm  -45.5018 42.4951 14.2936
RightForeArm  -101.527 68.1767 -100.244
RightHand  -2.77935 13.8164 -16.7341
LeftUpLeg  -4.67675 -8.48124 -14.0142
LeftLeg  6.87824 14.4162 3.41816
LeftFoot  -5.59978 -0.262412 3.88951
LeftToes  7.37594e-011 2.64622e-011 -6.25182e-011
491
root  2.48158 39.6299 -1.52059 1.49691 3.85586 5.92858
RightUpLeg  -7.86968 -15.3142 -14.4039
RightLeg  10.3719 -8.02621 -4.12627
RightFoot  2.85316 -1.18596 8.24385
RightToes  1.74624e-010 -3.18055e-015 -2.98177e-016
Spine  2.35334 5.60709 18.4152
Spine1  -14.2993 7.21076 -36.1135
HEad  43.8112 0.486879 22.4938
LeftShoulder1  -3.88251e-019 9.70628e-020 -3.87848e-018
LeftArm  -42.8836 26.1148 12.0277
LeftForeArm  172.419 -49.203 168.166
LeftHand  -5.43229 -9.88605 40.845
RightShoulder  -0.931147 -9.71912 -15.5093
RightArm  -48.483 41.6387 13.2287
RightForeArm  -114.48 67.2641 -111.597
RightHand  -3.07315 13.7455 -18.5224
LeftUpLeg  -4.67417 -8.51098 -14.0972
LeftLeg  6.92086 14.8099 3.48884
LeftFoot  -5.65508 -0.271195 3.98617
LeftToes  7.37594e-011 2.64622e-011 -6.25182e-011
492
root  2.53482 39.6268 -1.52804 1.47272 3.43213 5.9046
RightUpLeg  -8.00127 -15.017 -14.3759
RightLeg  10.2641 -7.92702 -4.1291
RightFoot  2.96412 -1.20246 8.2993
RightToes  1.74624e-010 -3.18055e-015 -2.98177e-016
Spine  2.80751 5.3903 18.2175
Spine1  -14.9179 6.86275 -36.0486
HEad  44.7897 0.958707 22.3282
LeftShoulder1  -3.88251e-019 9.70628e-020 -3.87848e-018
LeftArm  -41.4515 27.6859 13.4513
LeftForeArm  174.644 -47.6134 168.702
LeftHand  -5.85614 -10.1986 42.9238
RightShoulder  -0.917032 -10.1706 -15.715
RightArm  -51.2287 40.2528 11.9913
RightForeArm  -124.957 65.8224 -120.768
RightHand  -3.25194 13.4499 -19.8643
LeftUpLeg  -4.65552 -8.5251 -14.1646
LeftLeg  6.88703 15.2453 3.51909
LeftFoot  -5.68116 -0.280606 4.08643
LeftToes  7.37594e-011 2.64622e-011 -6.25182e-011
493
root  2.5862 39.6216 -1.53342 1.57488 2.83674 5.89792
RightUpLeg  -8.3751 -14.7152 -14.2805
RightLeg  10.211 -7.70027 -4.17342
RightFoot  3.04093 -1.2197 8.37771
RightToes  1.74624e-010 -3.18055e-015 -2.98177e-016
Spine  3.30051 5.22685 18.0505
Spine1  -15.7701 6.50175 -36.0787
HEad  45.4153 1.4905 22.2505
LeftShoulder1  -3.88251e-019 9.70628e-020 -3.87848e-018
LeftArm  -40.0875 29.4471 15.0555
LeftForeArm  175.14 -47.1236 168.871
LeftHand  -6.11781 -10.3411 44.2796
RightShoulder  -0.91476 -10.3652 -15.517
RightArm  -53.6863 38.6551 10.2729
RightForeArm  -132.975 64.4048 -127.085
RightHand  -3.22218 13.2081 -19.9325
LeftUpLeg  -4.76823 -8.52369 -14.2091
LeftLeg  6.8273 15.8012 3.50465
LeftFoot  -5.67414 -0.281251 4.07964
LeftToes  7.37594e-011 2.64622e-011 -6.25182e-011
494
root  2.63529 39.616 -1.53871 1.70132 2.20411 5.89279
RightUpLeg  -8.76252 -14.3959 -14.1814
RightLeg  10.1116 -7.47551 -4.17745
RightFoot  3.13633 -1.23316 8.41893
RightToes  1.74624e-010 -3.18055e-015 -2.98177e-016
Spine  3.84506 5.07811 18.0242
Spine1  -16.7227 6.13399 -36.2379
HEad  45.8393 1.82649 22.1882
LeftShoulder1  -3.88251e-019 9.70628e-020 -3.87848e-018
LeftArm  -39.0331 31.3422 16.1433
LeftForeArm  174.225 -47.6839 168.698
LeftHand  -6.11817 -10.3602 44.2267
RightShoulder  -0.923965 -10.2707 -15.064
RightArm  -55.7306 36.9755 8.29277
RightForeArm  -138.215 63.429 -130.677
RightHand  -3.05407 13.1679 -18.9625
LeftUpLeg  -4.91998 -8.51518 -14.2404
LeftLeg  6.78275 16.3777 3.48715
LeftFoot  -5.6486 -0.280557 4.07843
LeftToes  7.37594e-011 2.64622e-011 -6.25182e-011
495
root  2.68473 39.6135 -1.54081 1.69079 1.73178 5.87907
RightUpLeg  -8.8571 -14.1586 -14.1809
RightLeg  9.91795 -7.27889 -4.06486
RightFoot  3.22792 -1.2321 8.36184
RightToes  1.74624e-010 -3.18055e-015 -2.98177e-016
Spine  4.25763 4.90846 18.0723
Spine1  -17.3399 5.83032 -36.3178
HEad  46.1788 2.12867 21.7361
LeftShoulder1  -3.88251e-019 9.70628e-020 -3.87848e-018
LeftArm  -38.4475 33.0558 16.2816
LeftForeArm  173.042 -49.223 168.134
LeftHand  -5.97547 -10.142 43.8614
RightShoulder  -0.931883 -10.1599 -14.6763
RightArm  -56.9236 35.0808 6.89245
RightForeArm  -140.736 62.8944 -132.421
RightHand  -2.941 13.1464 -18.3013
LeftUpLeg  -4.89864 -8.44724 -14.2649
LeftLeg  6.70618 16.7882 3.40412
LeftFoot  -5.61047 -0.298208 4.32748
LeftToes  7.37594e-011 2.64622e-011 -6.25182e-011
496
root  2.73404 39.6156 -1.54346 1.50704 1.37612 5.86218
RightUpLeg  -8.6957 -14.0069 -14.2645
RightLeg  9.7108 -7.0289 -3.89774
RightFoot  3.28235 -1.21646 8.22542
RightToes  1.74624e-010 -3.18055e-015 -2.98177e-016
Spine  4.5126 4.68419 18.0552
Spine1  -17.5466 5.57457 -36.1272
HEad  46.3947 2.63628 20.6435
LeftShoulder1  -3.88251e-019 9.70628e-020 -3.87848e-018
LeftArm  -38.292 34.2278 15.7592
LeftForeArm  172.313 -51.5999 167.13
LeftHand  -5.85686 -9.71589 44.2036
RightShoulder  -0.934702 -10.1805 -14.4521
RightArm  -57.0717 33.0794 6.62412
RightForeArm  -141.76 62.6177 -133.247
RightHand  -3.0035 12.9799 -18.842
LeftUpLeg  -4.61529 -8.25823 -14.2665
LeftLeg  6.48229 17.0467 3.14221
LeftFoot  -5.54106 -0.332981 4.81641
LeftToes  7.37594e-011 2.64622e-011 -6.25182e-011
497
root  2.7782 39.6272 -1.54438 1.2047 0.988935 5.80202
RightUpLeg  -8.41278 -13.6779 -14.3006
RightLeg  9.46974 -6.93421 -3.76223
RightFoot  3.39284 -1.19284 8.00653
RightToes  1.74624e-010 -3.18055e-015 -2.98177e-016
Spine  4.73736 4.31897 17.9919
Spine1  -17.6413 5.20523 -35.6598
HEad  46.3947 3.4123 19.1785
LeftShoulder1  -3.88251e-019 9.70628e-020 -3.87848e-018
LeftArm  -38.3898 34.7054 15.0967
LeftForeArm  172.462 -54.3748 165.76
LeftHand  -5.82778 -9.30553 45.141
RightShoulder  -0.938817 -10.1311 -14.2068
RightArm  -56.5984 31.4881 7.11166
RightForeArm  -142.625 62.5687 -133.466
RightHand  -3.13632 12.7814 -19.8585
LeftUpLeg  -4.10349 -7.9979 -14.215
LeftLeg  6.04975 17.3223 2.75002
LeftFoot  -5.41537 -0.364353 5.20976
LeftToes  7.37594e-011 2.64622e-011 -6.25182e-011
